
<svg
  version="1.0"
  xmlns="http://www.w3.org/2000/svg"
  xmlns:xlink="http://www.w3.org/1999/xlink"
  width="2400"
  height="1800"
>
  
  <rect
    x="0"
    y="0"
    width="100%"
    height="100%"
    fill="#000000"
    fill-opacity="1"
  ></rect>
  <svg
    version="1.0"
    xmlns="http://www.w3.org/2000/svg"
    xmlns:xlink="http://www.w3.org/1999/xlink"
    x="0"
    y="0"
    width="2400"
    height="1800"
    viewBox="0 0 340.000000 250.000000"
    preserveAspectRatio="xMidYMid meet"
    color-interpolation-filters="sRGB"
  >
    <defs><linearGradient id="92" x1="0%" y1="0%" x2="100%" y2="0%"><stop offset="0%" stop-color="#fa71cd"/> <stop offset="100%" stop-color="#9b59b6"/></linearGradient><linearGradient id="93" x1="0%" y1="0%" x2="100%" y2="0%"><stop offset="0%" stop-color="#f9d423"/> <stop offset="100%" stop-color="#f83600"/></linearGradient><linearGradient id="94" x1="0%" y1="0%" x2="100%" y2="0%"><stop offset="0%" stop-color="#0064d2"/> <stop offset="100%" stop-color="#1cb0f6"/></linearGradient><linearGradient id="95" x1="0%" y1="0%" x2="100%" y2="0%"><stop offset="0%" stop-color="#f00978"/> <stop offset="100%" stop-color="#3f51b1"/></linearGradient><linearGradient id="96" x1="0%" y1="0%" x2="100%" y2="0%"><stop offset="0%" stop-color="#7873f5"/> <stop offset="100%" stop-color="#ec77ab"/></linearGradient><linearGradient id="97" x1="0%" y1="0%" x2="100%" y2="0%"><stop offset="0%" stop-color="#f9d423"/> <stop offset="100%" stop-color="#e14fad"/></linearGradient><linearGradient id="98" x1="0%" y1="0%" x2="100%" y2="0%"><stop offset="0%" stop-color="#009efd"/> <stop offset="100%" stop-color="#2af598"/></linearGradient><linearGradient id="99" x1="0%" y1="0%" x2="100%" y2="0%"><stop offset="0%" stop-color="#ffcc00"/> <stop offset="100%" stop-color="#00b140"/></linearGradient><linearGradient id="100" x1="0%" y1="0%" x2="100%" y2="0%"><stop offset="0%" stop-color="#d51007"/> <stop offset="100%" stop-color="#ff8177"/></linearGradient><linearGradient id="102" x1="0%" y1="0%" x2="100%" y2="0%"><stop offset="0%" stop-color="#a2b6df"/> <stop offset="100%" stop-color="#0c3483"/></linearGradient><linearGradient id="103" x1="0%" y1="0%" x2="100%" y2="0%"><stop offset="0%" stop-color="#7ac5d8"/> <stop offset="100%" stop-color="#eea2a2"/></linearGradient><linearGradient id="104" x1="0%" y1="0%" x2="100%" y2="0%"><stop offset="0%" stop-color="#00ecbc"/> <stop offset="100%" stop-color="#007adf"/></linearGradient><linearGradient id="105" x1="0%" y1="0%" x2="100%" y2="0%"><stop offset="0%" stop-color="#b88746"/> <stop offset="100%" stop-color="#fdf5a6"/></linearGradient></defs> <g fill="#ffffff" class="iconlinesvg-g iconlinesvg" transform="translate(87.3843765258789,99.0221061706543)"><g class="tp-name"><g transform="translate(0, 0)"><g><g class="imagesvg"><g><rect fill="#ffffff" fill-opacity="0" stroke-width="2" x="0" y="0" width="32.855282532640565" height="51.95578938381101" class="image-rect"/> <svg x="0" y="0" width="32.855282532640565" height="51.95578938381101" filtersec="colorsb7231101762" class="image-svg-svg primary" style="overflow: visible;"><svg xmlns="http://www.w3.org/2000/svg" viewBox="0 -0.005906743463128805 14.971872329711914 23.675907135009766"><path d="M13.1 4.13a6.93 6.93 0 0 0-.77-1.47A5.32 5.32 0 0 0 11 1.33a6.54 6.54 0 0 0-2-1A9.64 9.64 0 0 0 6.14 0H0v3.17h6.08c.19 0 .5 0 .94.05a3.78 3.78 0 0 1 1.34.36 3.19 3.19 0 0 1 1.2 1h3.67c-.02-.11-.07-.28-.13-.45z" fill="#A8A8A8"/><path d="M12.76 9.52a5.35 5.35 0 0 0 .55-1.25 4 4 0 0 0 .13-.64H9.93a2.93 2.93 0 0 1-.54 1.09 2.89 2.89 0 0 1-1.15.81 5 5 0 0 1-2 .32H0V13h7.78a6 6 0 0 1 1 .16 3.84 3.84 0 0 1 1 .43 3.25 3.25 0 0 1 .88.82 4.54 4.54 0 0 1 .59 1.09 3.34 3.34 0 0 1 .24 1.24 4.48 4.48 0 0 1-.17 1.09 3.32 3.32 0 0 1-.66 1.22 4.14 4.14 0 0 1-1.31 1 4.75 4.75 0 0 1-2.14.41H0v3.17h7.07a9.25 9.25 0 0 0 4-.74 6.61 6.61 0 0 0 2.39-1.79 6.06 6.06 0 0 0 1.19-2.23 8.4 8.4 0 0 0 .32-2.12 6 6 0 0 0-.42-2.36 7.07 7.07 0 0 0-1-1.68 5.56 5.56 0 0 0-1.16-1.09c-.39-.27-.72-.47-1-.62.19-.17.41-.38.65-.63a4.28 4.28 0 0 0 .72-.85z" fill="#EC0A81"/><path fill="#EC0A81" d="M0 9.85h3.34v13.82H0z"/></svg></svg> </g></g></g></g><g transform="translate(36, 4.300444028689714)"><g fill="#ffffff" transform="scale(1)"><path d="M9.43 0L4.25 0L4.25-29.50L7.22-29.50Q8.07-29.50 8.39-29.18Q8.71-28.85 8.82-28.07L8.82-28.07L9.17-23.47Q10.69-26.55 12.91-28.29Q15.14-30.02 18.14-30.02L18.14-30.02Q19.36-30.02 20.35-29.74Q21.34-29.47 22.19-28.97L22.19-28.97L21.52-25.10Q21.31-24.37 20.61-24.37L20.61-24.37Q20.21-24.37 19.36-24.65Q18.52-24.92 17.00-24.92L17.00-24.92Q14.30-24.92 12.48-23.35Q10.66-21.78 9.43-18.78L9.43-18.78L9.43 0Z" transform="translate(-4.251051439663541, 42.88903267550955)"/></g></g><g transform="translate(57, 4.300444028689714)"><g fill="#ffffff" transform="scale(1)"><path d="M25.91-18.87L25.91 0L23.61 0Q22.86 0 22.39-0.23Q21.92-0.47 21.78-1.22L21.78-1.22L21.20-3.96Q20.03-2.91 18.93-2.08Q17.82-1.25 16.60-0.68Q15.37-0.12 13.99 0.17Q12.61 0.47 10.92 0.47L10.92 0.47Q9.20 0.47 7.70-0.01Q6.20-0.49 5.10-1.46Q3.99-2.42 3.33-3.89Q2.68-5.36 2.68-7.37L2.68-7.37Q2.68-9.11 3.64-10.73Q4.60-12.35 6.74-13.60Q8.88-14.85 12.35-15.65Q15.81-16.45 20.82-16.57L20.82-16.57L20.82-18.87Q20.82-22.30 19.35-24.07Q17.88-25.83 15.00-25.83L15.00-25.83Q13.10-25.83 11.81-25.35Q10.51-24.87 9.56-24.27Q8.62-23.67 7.93-23.19Q7.25-22.71 6.58-22.71L6.58-22.71Q6.06-22.71 5.66-22.99Q5.27-23.26 5.04-23.67L5.04-23.67L4.11-25.33Q6.55-27.69 9.38-28.85Q12.20-30.02 15.64-30.02L15.64-30.02Q18.11-30.02 20.03-29.20Q21.95-28.39 23.26-26.93Q24.57-25.48 25.24-23.41Q25.91-21.34 25.91-18.87L25.91-18.87ZM12.46-3.17L12.46-3.17Q13.83-3.17 14.97-3.45Q16.10-3.73 17.11-4.24Q18.11-4.75 19.03-5.47Q19.95-6.20 20.82-7.13L20.82-7.13L20.82-13.28Q17.24-13.16 14.73-12.71Q12.23-12.26 10.66-11.53Q9.08-10.80 8.37-9.81Q7.66-8.82 7.66-7.60L7.66-7.60Q7.66-6.43 8.04-5.59Q8.41-4.75 9.06-4.21Q9.70-3.67 10.57-3.42Q11.44-3.17 12.46-3.17Z" transform="translate(-2.6787447428016824, 42.88903267550955)"/></g></g><g transform="translate(84, 4.300444028689714)"><g fill="#ffffff" transform="scale(1)"><path d="M9.43 0L4.25 0L4.25-29.50L7.34-29.50Q8.44-29.50 8.74-28.42L8.74-28.42L9.14-25.22Q11.06-27.34 13.44-28.65Q15.81-29.96 18.93-29.96L18.93-29.96Q21.34-29.96 23.19-29.16Q25.04-28.36 26.28-26.89Q27.52-25.42 28.16-23.35Q28.80-21.28 28.80-18.78L28.80-18.78L28.80 0L23.61 0L23.61-18.78Q23.61-22.13 22.09-23.98Q20.56-25.83 17.41-25.83L17.41-25.83Q15.11-25.83 13.12-24.72Q11.12-23.61 9.43-21.72L9.43-21.72L9.43 0Z" transform="translate(-4.25105143966354, 42.88903267550955)"/></g></g><g transform="translate(112, 4.300444028689714)"><g fill="#ffffff" transform="scale(1)"><path d="M28.10 0L25.01 0Q23.90 0 23.61-1.08L23.61-1.08L23.15-4.66Q21.26-2.36 18.82-0.98Q16.39 0.41 13.25 0.41L13.25 0.41Q10.71 0.41 8.65-0.57Q6.58-1.54 5.12-3.44Q3.67-5.33 2.88-8.15Q2.10-10.98 2.10-14.65L2.10-14.65Q2.10-17.91 2.97-20.72Q3.84-23.53 5.49-25.59Q7.13-27.66 9.49-28.84Q11.85-30.02 14.85-30.02L14.85-30.02Q17.56-30.02 19.48-29.10Q21.40-28.19 22.91-26.53L22.91-26.53L22.91-42.89L28.10-42.89L28.10 0ZM14.97-3.79L14.97-3.79Q17.50-3.79 19.41-4.95Q21.31-6.11 22.91-8.24L22.91-8.24L22.91-22.51Q21.49-24.43 19.78-25.20Q18.08-25.97 16.01-25.97L16.01-25.97Q11.88-25.97 9.67-23.03Q7.45-20.09 7.45-14.65L7.45-14.65Q7.45-11.76 7.95-9.71Q8.44-7.66 9.40-6.33Q10.37-5.01 11.76-4.40Q13.16-3.79 14.97-3.79Z" transform="translate(-2.096408929149143, 42.88903267550955)"/></g></g><g transform="translate(142, 4.300444028689714)"><g fill="#ffffff" transform="scale(1)"><path d="M25.91-18.87L25.91 0L23.61 0Q22.86 0 22.39-0.23Q21.92-0.47 21.78-1.22L21.78-1.22L21.20-3.96Q20.03-2.91 18.93-2.08Q17.82-1.25 16.60-0.68Q15.37-0.12 13.99 0.17Q12.61 0.47 10.92 0.47L10.92 0.47Q9.20 0.47 7.70-0.01Q6.20-0.49 5.10-1.46Q3.99-2.42 3.33-3.89Q2.68-5.36 2.68-7.37L2.68-7.37Q2.68-9.11 3.64-10.73Q4.60-12.35 6.74-13.60Q8.88-14.85 12.35-15.65Q15.81-16.45 20.82-16.57L20.82-16.57L20.82-18.87Q20.82-22.30 19.35-24.07Q17.88-25.83 15.00-25.83L15.00-25.83Q13.10-25.83 11.81-25.35Q10.51-24.87 9.56-24.27Q8.62-23.67 7.93-23.19Q7.25-22.71 6.58-22.71L6.58-22.71Q6.06-22.71 5.66-22.99Q5.27-23.26 5.04-23.67L5.04-23.67L4.11-25.33Q6.55-27.69 9.38-28.85Q12.20-30.02 15.64-30.02L15.64-30.02Q18.11-30.02 20.03-29.20Q21.95-28.39 23.26-26.93Q24.57-25.48 25.24-23.41Q25.91-21.34 25.91-18.87L25.91-18.87ZM12.46-3.17L12.46-3.17Q13.83-3.17 14.97-3.45Q16.10-3.73 17.11-4.24Q18.11-4.75 19.03-5.47Q19.95-6.20 20.82-7.13L20.82-7.13L20.82-13.28Q17.24-13.16 14.73-12.71Q12.23-12.26 10.66-11.53Q9.08-10.80 8.37-9.81Q7.66-8.82 7.66-7.60L7.66-7.60Q7.66-6.43 8.04-5.59Q8.41-4.75 9.06-4.21Q9.70-3.67 10.57-3.42Q11.44-3.17 12.46-3.17Z" transform="translate(-2.6787447428016824, 42.88903267550955)"/></g></g></g> </g><defs v-gra="od"/>
  </svg>
</svg>


