<?xml version="1.0" encoding="UTF-8"?>
<svg version="1.1" xmlns="http://www.w3.org/2000/svg" width="1416" height="1068">
<path d="M0 0 C11.8751865 6.6440491 21.51850981 16.8244384 25.50390625 30.01171875 C28.77153655 44.25407979 26.41124346 57.40575828 18.7109375 69.78125 C13.92092279 76.5543308 8.15001091 81.77308172 0.7578125 85.54296875 C0.01660156 85.93613281 -0.72460938 86.32929687 -1.48828125 86.734375 C-11.26146721 91.11020085 -23.53327613 91.18567078 -33.84765625 88.66015625 C-46.04845804 83.89347819 -56.47413276 75.89020537 -62.0546875 63.91796875 C-62.81824201 62.14068487 -63.54761796 60.34832928 -64.2421875 58.54296875 C-64.60828125 57.63933594 -64.974375 56.73570312 -65.3515625 55.8046875 C-68.56365871 44.04108955 -67.24765258 30.09626176 -61.2421875 19.54296875 C-48.05233664 -0.75793214 -22.6629796 -10.34614286 0 0 Z " fill="#FDF7FC" transform="translate(604.2421875,484.45703125)"/>
<path d="M0 0 C4.62 0 9.24 0 14 0 C14 10.89 14 21.78 14 33 C16.64 31.02 19.28 29.04 22 27 C30.32172249 22.2802171 38.12632671 21.43324265 47.44140625 23.91796875 C60.02798131 28.42463352 67.10036339 34.78030685 72.94921875 46.6953125 C76.555422 54.60482892 76.1182305 65.1070597 74.19921875 73.50390625 C70.31029886 83.75408341 63.46310639 91.5489802 53.45703125 96.0625 C44.84877659 99.34704868 36.52527477 100.93384617 27.5625 97.796875 C22.63774885 95.40692224 18.73741389 93.03570514 15 89 C14.93941406 89.63808594 14.87882813 90.27617188 14.81640625 90.93359375 C14.73261719 91.75988281 14.64882813 92.58617187 14.5625 93.4375 C14.48128906 94.26121094 14.40007813 95.08492187 14.31640625 95.93359375 C14 98 14 98 13 99 C8.71 99 4.42 99 0 99 C0 66.33 0 33.66 0 0 Z " fill="#FEF5FB" transform="translate(694,478)"/>
<path d="M0 0 C4.29 0 8.58 0 13 0 C13 32.67 13 65.34 13 99 C8.71 99 4.42 99 0 99 C-0.33 95.37 -0.66 91.74 -1 88 C-2.134375 89.0725 -3.26875 90.145 -4.4375 91.25 C-12.48473038 98.14962535 -19.68640392 99.83975878 -30.1875 99.3828125 C-35.19549446 98.8799606 -38.79344351 97.71445128 -43 95 C-44.04220703 94.34644531 -44.04220703 94.34644531 -45.10546875 93.6796875 C-53.7723115 87.72834708 -60.0528142 78.41560704 -62 68 C-62.6027984 58.95802401 -62.93700905 50.93692774 -58 43 C-57.4225 41.989375 -56.845 40.97875 -56.25 39.9375 C-49.47949134 31.0982248 -42.55287443 26.51762481 -32 23 C-22.73077229 22.06640872 -15.11440612 23.33853266 -7 28 C-5.02 29.65 -3.04 31.3 -1 33 C-0.67 22.11 -0.34 11.22 0 0 Z " fill="#FEF2FA" transform="translate(1040,478)"/>
<path d="M0 0 C1.8125 1.875 1.8125 1.875 1.8125 3.875 C2.4725 3.875 3.1325 3.875 3.8125 3.875 C3.8125 0.905 3.8125 -2.065 3.8125 -5.125 C8.1025 -5.125 12.3925 -5.125 16.8125 -5.125 C16.8125 18.635 16.8125 42.395 16.8125 66.875 C12.5225 66.875 8.2325 66.875 3.8125 66.875 C3.8125 63.575 3.8125 60.275 3.8125 56.875 C3.27882813 57.33390625 2.74515625 57.7928125 2.1953125 58.265625 C-6.58880433 65.49960357 -14.13607239 68.68762666 -25.65234375 68.32421875 C-34.2311148 67.23409867 -42.50316244 63.50905489 -48.1875 56.875 C-55.67729591 46.82084808 -59.63012006 37.53439625 -58.1875 24.875 C-55.68738765 14.40842794 -50.1180795 5.0288447 -41.1875 -1.125 C-28.32870226 -8.78138339 -12.47756432 -8.31837621 0 0 Z " fill="#FEF4FB" transform="translate(495.1875,509.125)"/>
<path d="M0 0 C2.02833032 1.40344067 3.66868483 2.78430314 5.3203125 4.60546875 C5.6503125 1.96546875 5.9803125 -0.67453125 6.3203125 -3.39453125 C10.6103125 -3.39453125 14.9003125 -3.39453125 19.3203125 -3.39453125 C19.3203125 20.36546875 19.3203125 44.12546875 19.3203125 68.60546875 C15.0303125 68.60546875 10.7403125 68.60546875 6.3203125 68.60546875 C5.8253125 64.15046875 5.8253125 64.15046875 5.3203125 59.60546875 C3.5878125 60.96671875 3.5878125 60.96671875 1.8203125 62.35546875 C0.32772697 63.44899495 -1.17227 64.5324806 -2.6796875 65.60546875 C-3.2571875 66.03085937 -3.8346875 66.45625 -4.4296875 66.89453125 C-11.08367757 71.02356973 -19.16832489 70.3664984 -26.6796875 69.60546875 C-30.02409895 68.69882332 -32.74317902 67.42330733 -35.6796875 65.60546875 C-36.6696875 65.06921875 -37.6596875 64.53296875 -38.6796875 63.98046875 C-46.59009002 57.71806676 -52.80716378 50.72453731 -54.6796875 40.60546875 C-55.97992144 28.56867892 -54.6407379 18.99743892 -47.6171875 8.91796875 C-35.79132992 -5.45656503 -15.99987771 -9.02500066 0 0 Z " fill="#FEF4FB" transform="translate(884.6796875,507.39453125)"/>
<path d="M0 0 C4.29 0 8.58 0 13 0 C13 14.19 13 28.38 13 43 C26.2 43 39.4 43 53 43 C53 28.81 53 14.62 53 0 C57.29 0 61.58 0 66 0 C66 32.67 66 65.34 66 99 C61.71 99 57.42 99 53 99 C53 84.81 53 70.62 53 56 C39.8 56 26.6 56 13 56 C13 70.19 13 84.38 13 99 C8.71 99 4.42 99 0 99 C0 66.33 0 33.66 0 0 Z " fill="#FEFCFD" transform="translate(363,478)"/>
<path d="M0 0 C7.37034871 5.22162636 12.12010527 11.10722705 14 20 C14.08508333 21.71021712 14.11776382 23.42341518 14.11352539 25.13574219 C14.11344986 26.15649841 14.11337433 27.17725464 14.11329651 28.22894287 C14.10813522 29.32386047 14.10297394 30.41877808 14.09765625 31.546875 C14.0962413 32.6732135 14.09482635 33.799552 14.09336853 34.96002197 C14.08777199 38.55670835 14.0752201 42.15333244 14.0625 45.75 C14.05748455 48.18880118 14.05292172 50.62760334 14.04882812 53.06640625 C14.03780369 59.04429483 14.0205414 65.02213685 14 71 C9.71 71 5.42 71 1 71 C0.9906543 69.51677246 0.98130859 68.03354492 0.97167969 66.50537109 C0.9317505 60.99237242 0.8659824 55.47993004 0.79248047 49.96728516 C0.76428805 47.58324337 0.74306497 45.19910842 0.72900391 42.81494141 C0.70755131 39.38395548 0.66088636 35.95408776 0.609375 32.5234375 C0.60814636 31.46071625 0.60691772 30.397995 0.60565186 29.30307007 C0.48579484 23.22115305 0.04971093 19.63396513 -4 15 C-7.69989473 11.57082928 -10.5792349 10.70030251 -15.5 10.5 C-20.43370215 10.71421773 -23.36420505 11.45288298 -27 15 C-31.18591954 21.08734774 -31.60038684 26.84368509 -31.609375 34.0625 C-31.62591125 35.09439453 -31.64244751 36.12628906 -31.65948486 37.18945312 C-31.70776261 40.45969719 -31.72929134 43.7294769 -31.75 47 C-31.77817651 49.22788769 -31.80810628 51.45575394 -31.83984375 53.68359375 C-31.9135165 59.12235758 -31.96321482 64.56086667 -32 70 C-35.96 70 -39.92 70 -44 70 C-44 46.24 -44 22.48 -44 -2 C-40.04 -2 -36.08 -2 -32 -2 C-31.67 -0.35 -31.34 1.3 -31 3 C-30.13375 2.21625 -29.2675 1.4325 -28.375 0.625 C-19.77323641 -6.45290804 -9.25295184 -5.16308911 0 0 Z " fill="#FEF5FC" transform="translate(957,506)"/>
<path d="M0 0 C5.40577299 5.55593335 7.57811366 10.5649122 7.8125 18.375 C7.46345165 26.69846059 5.5126803 31.4200553 -0.5 37.125 C-6.19171599 41.73308059 -12.0061193 44.03314141 -19.390625 43.71484375 C-26.26439525 42.54266107 -31.38543941 39.23562214 -35.75 33.875 C-40.31536069 27.3438487 -41.85802802 21.23198445 -40.75 13.3125 C-38.37592756 5.90318556 -34.14275527 0.67177447 -27.75 -3.6875 C-18.005411 -8.5597945 -8.67230053 -5.32163896 0 0 Z " fill="#FC0282" transform="translate(1031.75,520.6875)"/>
<path d="M0 0 C5.75427662 4.17210249 9.00421317 9.62753072 10.23046875 16.6171875 C11.02609685 24.60240042 9.51340004 31.00178503 4.54296875 37.3671875 C-0.10482948 42.45652656 -6.50912162 45.33118666 -13.33203125 45.9296875 C-19.51045857 45.80475607 -25.120765 43.85921437 -29.85546875 39.8515625 C-35.21749378 34.10491964 -37.84422694 28.47314824 -38.14453125 20.6171875 C-37.86965761 12.82511729 -35.3195877 7.16724395 -29.76953125 1.6171875 C-20.57783485 -4.84798323 -9.83266985 -5.53380783 0 0 Z " fill="#FD0182" transform="translate(745.76953125,518.3828125)"/>
<path d="M0 0 C7.0385778 4.25659133 10.72862385 10.231959 12.80859375 18.09375 C13.86613863 24.66735284 12.10403531 30.44225551 8.625 35.9765625 C4.36034967 41.55805953 -1.59389549 45.37492096 -8.58984375 46.46875 C-16.12169671 46.67439786 -22.44132138 44.70738823 -28.32421875 39.98046875 C-33.14631263 35.10793456 -35.45519428 29.40631017 -35.75390625 22.59375 C-35.35955873 15.25681056 -33.38513473 8.66934038 -27.81640625 3.65625 C-26.62871432 2.77360737 -25.42138091 1.91644828 -24.19140625 1.09375 C-23.30453125 0.475 -22.41765625 -0.14375 -21.50390625 -0.78125 C-14.6813275 -3.09835222 -6.63420386 -2.9791851 0 0 Z " fill="#FC0282" transform="translate(878.19140625,517.90625)"/>
<path d="M0 0 C6.33179485 3.25175227 11.72427223 8.41856538 14.3671875 15.12109375 C15.42705507 23.97935536 14.90291749 31.88206223 9.3671875 39.12109375 C4.18037865 44.14058619 -1.07007688 47.13527331 -8.3203125 47.49609375 C-14.92544739 47.31917049 -20.69784201 45.67088327 -25.74609375 41.28515625 C-32.09478511 34.42383764 -33.2084405 27.81780287 -33.08203125 18.609375 C-32.23980841 12.06933159 -28.77736854 8.15842198 -24.1328125 3.74609375 C-23.3078125 3.20984375 -22.4828125 2.67359375 -21.6328125 2.12109375 C-20.8078125 1.54359375 -19.9828125 0.96609375 -19.1328125 0.37109375 C-12.96380563 -1.83212299 -6.25937782 -2.08955491 0 0 Z " fill="#FB0482" transform="translate(483.6328125,516.87890625)"/>
<path d="M0 0 C2.89388659 1.46069097 5.70403788 2.98165486 8.4765625 4.66015625 C8.4765625 5.32015625 8.4765625 5.98015625 8.4765625 6.66015625 C2.06232 12.2490899 -3.34680947 12.97217922 -11.58984375 12.5546875 C-14.66923122 12.66539784 -15.85871318 12.99502006 -18.2109375 14.91015625 C-21.61316074 18.95604335 -22.76523034 21.59659785 -22.84228516 26.88769531 C-22.86215485 27.92847229 -22.88202454 28.96924927 -22.90249634 30.04156494 C-22.91982315 31.71675201 -22.91982315 31.71675201 -22.9375 33.42578125 C-22.95686615 34.5743158 -22.9762323 35.72285034 -22.9961853 36.90618896 C-23.05595876 40.57410255 -23.10235814 44.24204754 -23.1484375 47.91015625 C-23.18661928 50.39714909 -23.22567112 52.88412874 -23.265625 55.37109375 C-23.36165871 61.46734074 -23.44569851 67.56364963 -23.5234375 73.66015625 C-27.8134375 73.66015625 -32.1034375 73.66015625 -36.5234375 73.66015625 C-36.62276658 66.29528681 -36.69512478 58.93081262 -36.74316406 51.56542969 C-36.76320353 49.06308189 -36.79044272 46.56078047 -36.82519531 44.05859375 C-36.8740499 40.44910188 -36.89648395 36.84023246 -36.9140625 33.23046875 C-36.93470764 32.1227713 -36.95535278 31.01507385 -36.97662354 29.87380981 C-36.97901088 21.4951107 -35.39502339 14.15474073 -30.2734375 7.34765625 C-21.88590922 -0.84924639 -11.38218167 -4.32825755 0 0 Z " fill="#FEF7FC" transform="translate(813.5234375,503.33984375)"/>
<path d="M0 0 C3.96 0 7.92 0 12 0 C12 32.67 12 65.34 12 99 C8.04 99 4.08 99 0 99 C0 66.33 0 33.66 0 0 Z " fill="#FEEFF9" transform="translate(520,478)"/>
<path d="M0 0 C0.86625 0.66 1.7325 1.32 2.625 2 C3.45 2.556875 4.275 3.11375 5.125 3.6875 C13.62078301 11.54609928 16.47133983 20.96570889 16.9375 32.25 C16.83481905 42.9141505 12.02363464 51.55261392 4.8125 59.125 C1.31232691 62.52722049 -1.91976271 64.99077534 -6.375 67 C-7.365 66.67 -8.355 66.34 -9.375 66 C-8.80652344 65.69449219 -8.23804688 65.38898438 -7.65234375 65.07421875 C0.16461276 60.44146489 4.83308371 54.20195096 7.79296875 45.609375 C10.06977552 35.73252309 9.57034494 25.91463495 4.625 17 C4.274375 16.35546875 3.92375 15.7109375 3.5625 15.046875 C0.34485821 9.90758604 -4.15462038 6.92980489 -9.375 4 C-9.96796875 3.65710938 -10.5609375 3.31421875 -11.171875 2.9609375 C-18.52862074 -0.52212354 -28.56029528 -0.0615097 -36.3515625 1.65625 C-43.79187021 4.32831097 -48.90782404 9.49938566 -54.375 15 C-51.5159042 5.56498384 -43.63864032 0.50965622 -35.375 -4 C-23.70822142 -9.06294165 -10.5463358 -6.24968047 0 0 Z " fill="#F40E83" transform="translate(604.375,496)"/>
<path d="M0 0 C16.83 0 33.66 0 51 0 C51 3.3 51 6.6 51 10 C34.17 10 17.34 10 0 10 C0 6.7 0 3.4 0 0 Z " fill="#FEF8FE" transform="translate(638,530)"/>
<path d="M0 0 C4.29 0 8.58 0 13 0 C13 32.67 13 65.34 13 99 C8.71 99 4.42 99 0 99 C0 84.81 0 70.62 0 56 C0.33 56 0.66 56 1 56 C1 69.53 1 83.06 1 97 C4.3 97 7.6 97 11 97 C11 65.32 11 33.64 11 1 C7.7 1 4.4 1 1 1 C1 15.19 1 29.38 1 44 C-12.53 44 -26.06 44 -40 44 C-40 43.67 -40 43.34 -40 43 C-26.8 43 -13.6 43 0 43 C0 28.81 0 14.62 0 0 Z " fill="#FFD4F4" transform="translate(416,478)"/>
<path d="M0 0 C4.62 0 9.24 0 14 0 C14.33 11.22 14.66 22.44 15 34 C14.01 34 13.02 34 12 34 C12 23.11 12 12.22 12 1 C8.7 1 5.4 1 2 1 C2 32.68 2 64.36 2 97 C5.3 97 8.6 97 12 97 C11.95875 95.72125 11.9175 94.4425 11.875 93.125 C11.8046875 90.9453125 11.8046875 90.9453125 12 89 C12.99 88.01 12.99 88.01 14 87 C14.02687279 88.81242052 14.04633715 90.62495233 14.0625 92.4375 C14.07410156 93.44683594 14.08570313 94.45617187 14.09765625 95.49609375 C14 98 14 98 13 99 C8.71 99 4.42 99 0 99 C0 66.33 0 33.66 0 0 Z " fill="#F9B3DC" transform="translate(694,478)"/>
<path d="M0 0 C4.29 0 8.58 0 13 0 C13 14.19 13 28.38 13 43 C12.67 43 12.34 43 12 43 C12 29.14 12 15.28 12 1 C8.7 1 5.4 1 2 1 C2 32.68 2 64.36 2 97 C5.3 97 8.6 97 12 97 C12 83.47 12 69.94 12 56 C12.33 56 12.66 56 13 56 C13 70.19 13 84.38 13 99 C8.71 99 4.42 99 0 99 C0 66.33 0 33.66 0 0 Z " fill="#FECEF0" transform="translate(363,478)"/>
<path d="M0 0 C0.33 0 0.66 0 1 0 C1 32.34 1 64.68 1 98 C0.67 98 0.34 98 0 98 C-0.33 87.44 -0.66 76.88 -1 66 C-1.66 66 -2.32 66 -3 66 C-3 65.34 -3 64.68 -3 64 C-19.83 64 -36.66 64 -54 64 C-54.33 63.34 -54.66 62.68 -55 62 C-38.17 62 -21.34 62 -4 62 C-4 58.7 -4 55.4 -4 52 C-20.83 52 -37.66 52 -55 52 C-55 51.67 -55 51.34 -55 51 C-47.61271898 50.97473308 -40.22544902 50.9571684 -32.83813477 50.94506836 C-30.32283105 50.94002637 -27.80753028 50.93319297 -25.29223633 50.92456055 C-21.68570225 50.91248906 -18.07920677 50.90677051 -14.47265625 50.90234375 C-12.77424339 50.89460182 -12.77424339 50.89460182 -11.04151917 50.88670349 C-9.48001381 50.88659019 -9.48001381 50.88659019 -7.88696289 50.88647461 C-6.96540909 50.884254 -6.04385529 50.88203339 -5.09437561 50.87974548 C-3 51 -3 51 -2 52 C-1.85884839 54.67058851 -1.95752893 57.32432238 -2 60 C-1.34 60 -0.68 60 0 60 C0 40.2 0 20.4 0 0 Z " fill="#EC3594" transform="translate(693,478)"/>
<path d="M0 0 C0.33 0 0.66 0 1 0 C1 23.76 1 47.52 1 72 C4.96 72 8.92 72 13 72 C12.97905273 70.618125 12.95810547 69.23625 12.93652344 67.8125 C12.863853 62.66140193 12.81810177 57.51034876 12.78027344 52.35888672 C12.76021954 50.13387418 12.73296935 47.90891393 12.69824219 45.68408203 C12.64945066 42.47675635 12.62696838 39.27013049 12.609375 36.0625 C12.58872986 35.07572266 12.56808472 34.08894531 12.54681396 33.07226562 C12.54482267 26.8743017 13.40110448 22.1494218 17 17 C22.14478967 12.22269531 25.4447686 11.72969695 32.2890625 11.765625 C35.51205305 12.04426972 37.50941516 12.93882634 40 15 C37.50907189 16.24546405 36.58919267 15.7767578 34 15 C34 14.34 34 13.68 34 13 C27.43405743 13.52395268 27.43405743 13.52395268 22 17 C21.01 17 20.02 17 19 17 C18.690625 17.78375 18.38125 18.5675 18.0625 19.375 C17 22 17 22 16 24 C15.88143364 25.6027098 15.82293876 27.21005353 15.79467773 28.81689453 C15.77473251 29.81778107 15.75478729 30.8186676 15.73423767 31.84988403 C15.70916893 33.47493362 15.70916893 33.47493362 15.68359375 35.1328125 C15.66281265 36.23978485 15.64203156 37.3467572 15.62062073 38.48727417 C15.55509009 42.03311799 15.49622386 45.57903754 15.4375 49.125 C15.39431813 51.5247475 15.35070395 53.92448727 15.30664062 56.32421875 C15.19940508 62.21606767 15.09814752 68.10799297 15 74 C10.05 74 5.1 74 0 74 C0 49.58 0 25.16 0 0 Z " fill="#EB4B9D" transform="translate(912,504)"/>
<path d="M0 0 C0.33 0 0.66 0 1 0 C1 18.15 1 36.3 1 55 C4.3 55 7.6 55 11 55 C10.99214478 52.65285889 10.99214478 52.65285889 10.98413086 50.25830078 C10.9660729 44.46989511 10.95456505 38.68149194 10.94506836 32.89306641 C10.94002997 30.38459861 10.93319916 27.87613376 10.92456055 25.36767578 C10.91247339 21.7685473 10.90676685 18.16945753 10.90234375 14.5703125 C10.89718246 13.44319855 10.89202118 12.31608459 10.88670349 11.15481567 C10.88659019 9.59342361 10.88659019 9.59342361 10.88647461 8.00048828 C10.884254 7.08115509 10.88203339 6.1618219 10.87974548 5.21463013 C11 3 11 3 12 1 C12.66 1 13.32 1 14 1 C13.83923477 1.55218201 13.67846954 2.10436401 13.51283264 2.67327881 C12.94578397 5.24597807 12.83943286 7.59337997 12.79467773 10.22753906 C12.77473251 11.26831604 12.75478729 12.30909302 12.73423767 13.38140869 C12.70916893 15.05659576 12.70916893 15.05659576 12.68359375 16.765625 C12.66281265 17.91415955 12.64203156 19.06269409 12.62062073 20.24603271 C12.55525007 23.91396111 12.49629806 27.58196093 12.4375 31.25 C12.39430293 33.73698654 12.35068825 36.22396587 12.30664062 38.7109375 C12.19958138 44.80721852 12.09827853 50.90357136 12 57 C7.71 57 3.42 57 -1 57 C-1.02470307 49.52523032 -1.04286149 42.05048437 -1.05493164 34.57568359 C-1.05996305 32.03238511 -1.06678881 29.48908953 -1.07543945 26.94580078 C-1.08755706 23.29198492 -1.09324022 19.63820728 -1.09765625 15.984375 C-1.10281754 14.84570984 -1.10797882 13.70704468 -1.11329651 12.53387451 C-1.11337204 11.47307678 -1.11344757 10.41227905 -1.11352539 9.31933594 C-1.115746 8.38667908 -1.11796661 7.45402222 -1.12025452 6.49310303 C-1.00870334 4.18043665 -0.65429316 2.21353353 0 0 Z " fill="#FEC0E8" transform="translate(778,520)"/>
<path d="M0 0 C2.3125 -0.25 2.3125 -0.25 5 0 C6.625 1.6875 6.625 1.6875 8 4 C8.556875 4.86625 9.11375 5.7325 9.6875 6.625 C11 9 11 9 11 11 C11.66 11 12.32 11 13 11 C16.1342905 17.85422697 16.39855867 23.6812391 16.29296875 31.15625 C16.28872391 32.29912476 16.28447906 33.44199951 16.28010559 34.61950684 C16.26339974 38.24658409 16.22576156 41.8730925 16.1875 45.5 C16.17244275 47.96874194 16.15875617 50.43749264 16.14648438 52.90625 C16.11352271 58.93769196 16.06340403 64.96880532 16 71 C15.34 71 14.68 71 14 71 C13.99635437 70.38327423 13.99270874 69.76654846 13.98895264 69.13113403 C13.94692682 62.67363696 13.87744194 56.21683741 13.79248047 49.75976562 C13.76437023 47.35456338 13.74310658 44.94927047 13.72900391 42.54394531 C13.70743692 39.07309886 13.66071413 35.60333127 13.609375 32.1328125 C13.60814636 31.06886261 13.60691772 30.00491272 13.60565186 28.90872192 C13.36181266 16.29172472 8.69917997 8.64755279 0 0 Z " fill="#DB2182" transform="translate(957,506)"/>
<path d="M0 0 C0.66 0 1.32 0 2 0 C3.88414642 3.19457351 4.23819737 5.51502629 4.1953125 9.203125 C4.18886719 10.1828125 4.18242188 11.1625 4.17578125 12.171875 C4.15902344 13.18765625 4.14226563 14.2034375 4.125 15.25 C4.11597656 16.28125 4.10695313 17.3125 4.09765625 18.375 C4.07412011 20.91690287 4.04124023 23.4583328 4 26 C4.66 26 5.32 26 6 26 C6 25.01 6 24.02 6 23 C6.66 23 7.32 23 8 23 C7.18236144 31.72147793 0.32767663 38.56083963 -6 44 C-8.32573278 45.68765897 -10.35364182 46.80654435 -13 48 C-13.99 47.67 -14.98 47.34 -16 47 C-15.43152344 46.69449219 -14.86304688 46.38898437 -14.27734375 46.07421875 C-6.45665454 41.43925269 -1.80812258 35.20210684 1.17578125 26.6171875 C3.16387169 17.89220293 2.77625266 8.50227376 0 0 Z " fill="#E72889" transform="translate(611,515)"/>
<path d="M0 0 C0.33 0 0.66 0 1 0 C1 11.22 1 22.44 1 34 C-0.98 32.68 -2.96 31.36 -5 30 C-6.71127689 29.07044842 -8.43973335 28.17147989 -10.1875 27.3125 C-11.44626953 26.68794922 -11.44626953 26.68794922 -12.73046875 26.05078125 C-16.77912875 24.17627257 -20.2635935 23.74410738 -24.6875 23.4375 C-25.86699219 23.35371094 -27.04648437 23.26992188 -28.26171875 23.18359375 C-29.61716797 23.09271484 -29.61716797 23.09271484 -31 23 C-28.58124153 20.58124153 -27.88866956 20.67821871 -24.5625 20.625 C-15.61671509 20.80598409 -8.64630024 24.63068558 -1 29 C-0.67 19.43 -0.34 9.86 0 0 Z " fill="#EA2C8E" transform="translate(1039,478)"/>
<path d="M0 0 C0.33 0 0.66 0 1 0 C1.83970425 4.34324367 2.10149129 8.39561823 2.03759766 12.81567383 C2.02959641 13.46843292 2.02159515 14.12119202 2.01335144 14.79373169 C1.98567452 16.93161289 1.95013201 19.06927644 1.9140625 21.20703125 C1.89227499 22.69821192 1.87082625 24.18939757 1.84970093 25.68058777 C1.80435082 28.79485504 1.75513603 31.9090304 1.703125 35.02319336 C1.63661164 39.02257719 1.57945281 43.0220306 1.52509499 47.02159595 C1.48236369 50.09531039 1.43491721 53.1689378 1.38599777 56.24255943 C1.36305147 57.7181961 1.34154794 59.19385591 1.32149124 60.66953468 C1.29283305 62.72356728 1.25788716 64.77739628 1.22119141 66.83129883 C1.20263092 68.00122879 1.18407043 69.17115875 1.16494751 70.37654114 C1 73 1 73 0 74 C-1.59012149 74.4489414 -3.19818582 74.83532897 -4.8125 75.1875 C-5.68519531 75.38730469 -6.55789063 75.58710937 -7.45703125 75.79296875 C-10.32852881 76.02674658 -11.5930276 75.50926708 -14 74 C-14 73.67 -14 73.34 -14 73 C-7.565 72.505 -7.565 72.505 -1 72 C-0.67 48.24 -0.34 24.48 0 0 Z " fill="#ED0A7D" transform="translate(905,504)"/>
<path d="M0 0 C1.44246094 -0.02126953 1.44246094 -0.02126953 2.9140625 -0.04296875 C5.375 0.1875 5.375 0.1875 7.375 2.1875 C2.095 2.1875 -3.185 2.1875 -8.625 2.1875 C-8.625 2.8475 -8.625 3.5075 -8.625 4.1875 C-10.28348177 5.20101664 -11.95165961 6.19870795 -13.625 7.1875 C-14.346875 7.909375 -15.06875 8.63125 -15.8125 9.375 C-16.410625 9.973125 -17.00875 10.57125 -17.625 11.1875 C-18.285 11.1875 -18.945 11.1875 -19.625 11.1875 C-19.625 12.1775 -19.625 13.1675 -19.625 14.1875 C-20.285 14.1875 -20.945 14.1875 -21.625 14.1875 C-21.604375 15.156875 -21.58375 16.12625 -21.5625 17.125 C-21.625 20.1875 -21.625 20.1875 -22.625 21.1875 C-22.85575082 22.53497084 -23.03653063 23.89127565 -23.1875 25.25 C-23.331875 26.549375 -23.47625 27.84875 -23.625 29.1875 C-23.955 29.1875 -24.285 29.1875 -24.625 29.1875 C-25.08999187 20.78320243 -24.20200601 14.90984201 -19.375 7.9375 C-13.69901221 2.26151221 -7.96030815 0.05364089 0 0 Z " fill="#E72284" transform="translate(732.625,514.8125)"/>
<path d="M0 0 C0.66 0 1.32 0 2 0 C0.67239423 5.64232452 -3.38729885 8.02377372 -8 11 C-12.65841195 13.69697534 -17.76035489 13.63419336 -23 13 C-26.4935382 11.97984835 -29.81156429 10.76491189 -33 9 C-33.33 8.34 -33.66 7.68 -34 7 C-32.7315625 7.4640625 -32.7315625 7.4640625 -31.4375 7.9375 C-27.9502146 9.01538821 -24.61822465 9.56581304 -21 10 C-21 10.66 -21 11.32 -21 12 C-19.046875 11.47916667 -17.09375 10.95833333 -15.140625 10.4375 C-13 10 -13 10 -9 10 C-9 9.34 -9 8.68 -9 8 C-8.01 8 -7.02 8 -6 8 C-6 7.34 -6 6.68 -6 6 C-5.34 6 -4.68 6 -4 6 C-3.34 4.68 -2.68 3.36 -2 2 C-1.34 2 -0.68 2 0 2 C0 1.34 0 0.68 0 0 Z " fill="#E81C83" transform="translate(493,551)"/>
<path d="M0 0 C3.23199781 1.64538071 4.71037931 2.61959376 6.4375 5.75 C5.4475 5.75 4.4575 5.75 3.4375 5.75 C3.4375 5.09 3.4375 4.43 3.4375 3.75 C2.4475 3.75 1.4575 3.75 0.4375 3.75 C0.4375 3.09 0.4375 2.43 0.4375 1.75 C-11.63202664 0.14080847 -11.63202664 0.14080847 -22.5625 4.75 C-23.5525 6.235 -23.5525 6.235 -24.5625 7.75 C-25.5525 8.08 -26.5425 8.41 -27.5625 8.75 C-28.78695284 10.37948064 -28.78695284 10.37948064 -29.75 12.3125 C-30.348125 13.446875 -30.94625 14.58125 -31.5625 15.75 C-31.8925 15.09 -32.2225 14.43 -32.5625 13.75 C-30.29482493 8.76111484 -27.14641811 4.76867778 -22.5625 1.75 C-21.716875 1.1725 -20.87125 0.595 -20 0 C-13.58374059 -2.33318524 -6.47755391 -2.17914013 0 0 Z " fill="#E62A87" transform="translate(876.5625,517.25)"/>
<path d="M0 0 C0.625 1.6875 0.625 1.6875 1 4 C0.68675781 4.67675781 0.37351562 5.35351562 0.05078125 6.05078125 C-1.43105269 10.20983191 -1.42435328 14.11310446 -1.4375 18.5 C-1.44136719 19.38478027 -1.44523438 20.26956055 -1.44921875 21.18115234 C-1.31168092 29.06235643 0.65867098 34.86387588 4 42 C4 42.66 4 43.32 4 44 C3.01 43.67 2.02 43.34 1 43 C-0.125 40.5 -0.125 40.5 -1 38 C-1.33 37.67 -1.66 37.34 -2 37 C-3.29283345 30.55391434 -3.11304131 24.11343136 -3.0625 17.5625 C-3.05798828 16.44939453 -3.05347656 15.33628906 -3.04882812 14.18945312 C-3.03711193 11.45957899 -3.02070699 8.72981826 -3 6 C-2.34 6 -1.68 6 -1 6 C-1.0309375 4.7934375 -1.0309375 4.7934375 -1.0625 3.5625 C-1 1 -1 1 0 0 Z " fill="#EA318E" transform="translate(540,508)"/>
<path d="M0 0 C3 1 3 1 5 4 C5.99 4.33 6.98 4.66 8 5 C7.54625 5.598125 7.0925 6.19625 6.625 6.8125 C5.36704087 8.50590652 4.17015276 10.24477086 3 12 C3 10.68 3 9.36 3 8 C-0.93075644 8.57452746 -0.93075644 8.57452746 -4 11 C-5 8 -5 8 -4.00390625 5.95703125 C-3.52824219 5.24933594 -3.05257812 4.54164063 -2.5625 3.8125 C-2.08941406 3.09707031 -1.61632812 2.38164062 -1.12890625 1.64453125 C-0.75636719 1.10183594 -0.38382813 0.55914062 0 0 Z " fill="#FDE4F5" transform="translate(546,500)"/>
<path d="M0 0 C0.33 0 0.66 0 1 0 C1 3.63 1 7.26 1 11 C0.67 11 0.34 11 0 11 C-0.33 9.35 -0.66 7.7 -1 6 C-1.61875 6.4125 -2.2375 6.825 -2.875 7.25 C-12.42186865 12.59624645 -20.16016867 13.5203119 -31 13 C-31 12.67 -31 12.34 -31 12 C-29.69289063 11.99613281 -29.69289063 11.99613281 -28.359375 11.9921875 C-18.25232473 11.66403652 -9.18300317 9.49550317 -1.8125 2.125 C-0.9153125 1.073125 -0.9153125 1.073125 0 0 Z " fill="#E42486" transform="translate(1039,565)"/>
<path d="M0 0 C5.72201867 4.90458743 9.08055793 11.11005276 10.8125 18.4375 C11.53983761 32.2569146 11.53983761 32.2569146 9 37 C8.98541748 36.44127197 8.97083496 35.88254395 8.95581055 35.30688477 C8.88039202 32.72479948 8.78405119 30.14387816 8.6875 27.5625 C8.66494141 26.68400391 8.64238281 25.80550781 8.61914062 24.90039062 C8.37206528 18.81335264 7.24126153 13.66418471 5 8 C4.34 8 3.68 8 3 8 C0 2.25 0 2.25 0 0 Z " fill="#E52D8A" transform="translate(610,501)"/>
<path d="M0 0 C1.65 0.33 3.3 0.66 5 1 C5.80860645 3.42581934 6.03325603 4.84203385 5.5 7.375 C4.90543599 10.49646103 5.35357923 12.91154522 6 16 C3.04619851 12.53692239 0.68182031 9.24880919 -1 5 C-0.6875 2.125 -0.6875 2.125 0 0 Z " fill="#F30E83" transform="translate(605,499)"/>
<path d="M0 0 C0 0.66 0 1.32 0 2 C1.98 2 3.96 2 6 2 C6 2.66 6 3.32 6 4 C6.99 4.33 7.98 4.66 9 5 C8.01 5.495 8.01 5.495 7 6 C5.328125 5.44140625 5.328125 5.44140625 3.25 4.5625 C-4.81325884 1.70050051 -13.7078987 2.43972601 -22 4 C-22 3.34 -22 2.68 -22 2 C-14.66258031 -0.3479743 -7.65606218 -0.19355213 0 0 Z " fill="#E32A88" transform="translate(483,501)"/>
<path d="M0 0 C0 0.66 0 1.32 0 2 C1.32 2.33 2.64 2.66 4 3 C3.05640625 3.31130859 3.05640625 3.31130859 2.09375 3.62890625 C-5.9658607 6.52988058 -11.05335344 11.01698251 -17 17 C-15.06351668 10.60960503 -7.38850638 0 0 0 Z " fill="#E12C85" transform="translate(567,494)"/>
<path d="M0 0 C0.66 0 1.32 0 2 0 C3.88414642 3.19457351 4.23819737 5.51502629 4.1953125 9.203125 C4.18886719 10.1828125 4.18242188 11.1625 4.17578125 12.171875 C4.15902344 13.18765625 4.14226563 14.2034375 4.125 15.25 C4.11597656 16.28125 4.10695313 17.3125 4.09765625 18.375 C4.07412011 20.91690287 4.04124023 23.4583328 4 26 C4.66 26 5.32 26 6 26 C6 25.01 6 24.02 6 23 C6.66 23 7.32 23 8 23 C7.46930939 26.82097239 6.50298434 29.06171403 4 32 C2.35625714 30.35625714 2.81362584 28.41706323 2.75390625 26.15234375 C2.72103516 25.15396484 2.68816406 24.15558594 2.65429688 23.12695312 C2.59388846 21.02808218 2.53651413 18.92912135 2.48242188 16.83007812 C2.281941 10.9177835 1.6832903 5.67684542 0 0 Z " fill="#E82489" transform="translate(611,515)"/>
<path d="M0 0 C0.66 0 1.32 0 2 0 C2 3.3 2 6.6 2 10 C6.29 10 10.58 10 15 10 C15 10.33 15 10.66 15 11 C10.38 11 5.76 11 1 11 C0.67 8.69 0.34 6.38 0 4 C-0.60328125 4.44472656 -1.2065625 4.88945313 -1.828125 5.34765625 C-2.62734375 5.91355469 -3.4265625 6.47945312 -4.25 7.0625 C-5.43335938 7.91521484 -5.43335938 7.91521484 -6.640625 8.78515625 C-9 10 -9 10 -11.296875 9.68359375 C-11.85890625 9.45800781 -12.4209375 9.23242188 -13 9 C-12.39671875 8.68546875 -11.7934375 8.3709375 -11.171875 8.046875 C-6.8496809 5.73240977 -3.36094221 3.62981758 0 0 Z " fill="#EA4599" transform="translate(497,566)"/>
<path d="M0 0 C0.81082031 0.2165625 1.62164063 0.433125 2.45703125 0.65625 C9.79617514 2.50171575 16.43972437 3.40907303 24 3 C24 2.34 24 1.68 24 1 C25.32 1.33 26.64 1.66 28 2 C21.29652387 5.47587651 15.74095743 7.47465827 8.3125 5.1640625 C1.24726357 2.49452715 1.24726357 2.49452715 0 0 Z " fill="#E82A8A" transform="translate(717,558)"/>
<path d="M0 0 C3.71081594 4.51751506 4.29943963 7.97139998 4.22265625 13.83984375 C3.68065432 19.09821335 1.91773667 23.433433 -2 27 C-2 25.35 -2 23.7 -2 22 C-1.34 22 -0.68 22 0 22 C1.10445137 18.6866459 1.13304048 16.17304805 1.125 12.6875 C1.12757813 11.57761719 1.13015625 10.46773437 1.1328125 9.32421875 C1.00527335 6.13198875 0.59757773 3.13491173 0 0 Z " fill="#E12E88" transform="translate(887,528)"/>
<path d="M0 0 C1.26582219 3.86723631 1.1118765 7.73151262 1.0625 11.75 C1.05798828 12.44738281 1.05347656 13.14476562 1.04882812 13.86328125 C1.0371002 15.57555803 1.01916653 17.28779033 1 19 C1.66 19 2.32 19 3 19 C3.33 20.98 3.66 22.96 4 25 C-0.18984159 21.36880395 -1.76014183 18.11315923 -2.1875 12.56640625 C-2.29714595 7.95442358 -2.22230217 4.16681657 0 0 Z " fill="#E52F8B" transform="translate(993,529)"/>
<path d="M0 0 C2.3125 -0.25 2.3125 -0.25 5 0 C6.625 1.6875 6.625 1.6875 8 4 C8.556875 4.86625 9.11375 5.7325 9.6875 6.625 C11 9 11 9 11 11 C11.66 11 12.32 11 13 11 C13.33 13.97 13.66 16.94 14 20 C12.97733526 17.95467052 11.9556881 15.90872081 10.95703125 13.8515625 C8.40312001 8.88320275 5.79598053 5.50224518 1.35546875 2.09375 C0.90816406 1.7328125 0.46085938 1.371875 0 1 C0 0.67 0 0.34 0 0 Z " fill="#EA2587" transform="translate(957,506)"/>
<path d="M0 0 C0.66 0.33 1.32 0.66 2 1 C1.50886719 2.093125 1.01773438 3.18625 0.51171875 4.3125 C-1.45050826 9.54510535 -1.33609293 14.47539106 -1.1875 20 C-1.17396484 20.96550781 -1.16042969 21.93101562 -1.14648438 22.92578125 C-1.11145458 25.28445425 -1.06234084 27.64191771 -1 30 C-1.66 29.67 -2.32 29.34 -3 29 C-3.0871142 24.91680116 -3.14043048 20.83384136 -3.1875 16.75 C-3.21263672 15.59113281 -3.23777344 14.43226563 -3.26367188 13.23828125 C-3.27333984 12.12324219 -3.28300781 11.00820313 -3.29296875 9.859375 C-3.3086792 8.83295898 -3.32438965 7.80654297 -3.34057617 6.74902344 C-2.95512763 3.63780439 -2.08024524 2.2937883 0 0 Z " fill="#E82989" transform="translate(832,522)"/>
<path d="M0 0 C1.19625 0.33 2.3925 0.66 3.625 1 C10.03375105 2.45606824 16.46619456 2.16729516 23 2 C18.10214595 5.26523603 13.74353997 5.71101701 8 5 C5.10678123 3.90668796 2.68893157 2.56446928 0 1 C0 0.67 0 0.34 0 0 Z " fill="#E8338D" transform="translate(1002,559)"/>
<path d="M0 0 C1.75944472 2.63916708 2.68645652 4.68626145 3.75 7.625 C5.81324986 12.93943146 8.66605542 17.39915648 12 22 C5.84601216 19.33457851 2.4050394 13.07588902 0 7 C-0.1875 3.125 -0.1875 3.125 0 0 Z " fill="#E62A87" transform="translate(437,546)"/>
<path d="M0 0 C2.54232342 -0.08152344 5.08199202 -0.14073716 7.625 -0.1875 C8.33785156 -0.21263672 9.05070313 -0.23777344 9.78515625 -0.26367188 C14.59868692 -0.32991312 17.82231506 0.34556326 22 3 C22.33 3.66 22.66 4.32 23 5 C22.38253906 4.7834375 21.76507812 4.566875 21.12890625 4.34375 C13.56183187 1.85594472 6.80442666 0.98595441 -1 3 C-0.67 2.01 -0.34 1.02 0 0 Z " fill="#E62285" transform="translate(934,501)"/>
<path d="M0 0 C0.66 0.33 1.32 0.66 2 1 C-1.55744951 5.74326601 -4.61153256 8.45827007 -10 11 C-10.66 10.67 -11.32 10.34 -12 10 C-10.56458334 8.70601853 -9.12658648 7.41489889 -7.6875 6.125 C-6.88699219 5.40570313 -6.08648438 4.68640625 -5.26171875 3.9453125 C-3 2 -3 2 0 0 Z " fill="#FED9F4" transform="translate(560,487)"/>
<path d="M0 0 C0.66 0.33 1.32 0.66 2 1 C-0.24046048 4.4196502 -2.5056788 5.95454369 -6 8 C-6.721875 8.721875 -7.44375 9.44375 -8.1875 10.1875 C-9.0846875 11.0846875 -9.0846875 11.0846875 -10 12 C-10.66 12 -11.32 12 -12 12 C-10.64195446 8.8785222 -9.18624145 7.03041771 -6.5625 4.875 C-5.96566406 4.37742187 -5.36882812 3.87984375 -4.75390625 3.3671875 C-3.22237694 2.17334505 -1.6157298 1.0771532 0 0 Z " fill="#FECEEF" transform="translate(457,506)"/>
<path d="M0 0 C1.28583984 -0.02126953 1.28583984 -0.02126953 2.59765625 -0.04296875 C4.9375 0.1875 4.9375 0.1875 7.9375 2.1875 C6.86628906 2.24808594 5.79507813 2.30867187 4.69140625 2.37109375 C3.29425609 2.45548537 1.89712143 2.54013406 0.5 2.625 C-0.56057617 2.68397461 -0.56057617 2.68397461 -1.64257812 2.74414062 C-5.14940419 2.66374438 -5.14940419 2.66374438 -8.0625 4.1875 C-9.72867115 4.22813832 -11.39638095 4.230221 -13.0625 4.1875 C-8.7962104 0.68304783 -5.45741274 0.04115696 0 0 Z " fill="#E22184" transform="translate(1015.0625,514.8125)"/>
<path d="M0 0 C6.71821351 2.11143853 10.57315579 7.03475267 14 13 C14 14.32 14 15.64 14 17 C13.34 17 12.68 17 12 17 C11.7525 15.9275 11.505 14.855 11.25 13.75 C9.98470426 9.95411278 8.8930687 8.60376183 6 6 C6 5.34 6 4.68 6 4 C4.02 3.34 2.04 2.68 0 2 C0 1.34 0 0.68 0 0 Z " fill="#E42886" transform="translate(741,517)"/>
<path d="M0 0 C0.66 0.99 1.32 1.98 2 3 C-0.97 5.475 -0.97 5.475 -4 8 C-4.99 6.68 -5.98 5.36 -7 4 C-5 1 -5 1 -2.375 0.3125 C-1.59125 0.209375 -0.8075 0.10625 0 0 Z " fill="#F30A80" transform="translate(552,489)"/>
<path d="M0 0 C0.845625 0.309375 1.69125 0.61875 2.5625 0.9375 C6.0497854 2.01538821 9.38177535 2.56581304 13 3 C13 3.66 13 4.32 13 5 C15.64 5 18.28 5 21 5 C21 5.33 21 5.66 21 6 C13.60225045 6.56663614 7.55925303 5.63077845 1 2 C0.67 1.34 0.34 0.68 0 0 Z " fill="#E9368F" transform="translate(459,558)"/>
<path d="M0 0 C2.22889496 -0.05428973 4.45817471 -0.09292338 6.6875 -0.125 C8.54955078 -0.15980469 8.54955078 -0.15980469 10.44921875 -0.1953125 C13.81237857 -0.01032021 15.9985587 0.54232105 19 2 C17.3545622 3.68762851 15.68711423 5.3540349 14 7 C13.67 7 13.34 7 13 7 C13 5.02 13 3.04 13 1 C8.71 1 4.42 1 0 1 C0 0.67 0 0.34 0 0 Z " fill="#E3328C" transform="translate(912,503)"/>
<path d="M0 0 C2.75026417 -0.05404449 5.49946203 -0.09369306 8.25 -0.125 C9.02730469 -0.14175781 9.80460938 -0.15851563 10.60546875 -0.17578125 C17.72431144 -0.23662606 17.72431144 -0.23662606 21 2 C21 2.66 21 3.32 21 4 C19.7625 3.690625 18.525 3.38125 17.25 3.0625 C11.54835497 1.78031188 5.82126496 1.37429453 0 1 C0 0.67 0 0.34 0 0 Z " fill="#FECCEF" transform="translate(578,489)"/>
<path d="M0 0 C0.66 0.33 1.32 0.66 2 1 C1.29875 1.495 0.5975 1.99 -0.125 2.5 C-3.70236753 5.61075437 -6.27632648 9.14380244 -9 13 C-9.66 12.67 -10.32 12.34 -11 12 C-9.92338719 10.5574598 -8.83839897 9.12116839 -7.75 7.6875 C-6.84507812 6.48673828 -6.84507812 6.48673828 -5.921875 5.26171875 C-4.09729864 3.11450388 -2.31702954 1.58398701 0 0 Z " fill="#FEC9ED" transform="translate(845,509)"/>
<path d="M0 0 C2.41674224 -0.02705308 4.8331794 -0.04686438 7.25 -0.0625 C7.93191406 -0.07087891 8.61382813 -0.07925781 9.31640625 -0.08789062 C12.69342554 -0.10428392 15.77291639 -0.05628768 19 1 C19 1.99 19 2.98 19 4 C17.906875 3.690625 16.81375 3.38125 15.6875 3.0625 C10.51723677 1.7536901 5.30738608 1.37073653 0 1 C0 0.67 0 0.34 0 0 Z " fill="#E61C82" transform="translate(727,500)"/>
<path d="M0 0 C1.32 0.33 2.64 0.66 4 1 C4 1.66 4 2.32 4 3 C4.45375 3.433125 4.9075 3.86625 5.375 4.3125 C7.40230158 6.41777472 8.18123239 8.20254399 9 11 C8.546875 13.16015625 8.546875 13.16015625 8 15 C7.67386719 14.33613281 7.34773437 13.67226563 7.01171875 12.98828125 C4.81990529 8.55939564 2.64737248 4.18006181 0 0 Z " fill="#E61C81" transform="translate(620,497)"/>
<path d="M0 0 C0.33 0 0.66 0 1 0 C1 3.63 1 7.26 1 11 C0.67 11 0.34 11 0 11 C-0.33 9.35 -0.66 7.7 -1 6 C-2.65 6.33 -4.3 6.66 -6 7 C-5.02433888 5.83040013 -4.044375 4.66438823 -3.0625 3.5 C-2.51722656 2.8503125 -1.97195313 2.200625 -1.41015625 1.53125 C-0.71212891 0.77328125 -0.71212891 0.77328125 0 0 Z " fill="#E73992" transform="translate(1039,565)"/>
<path d="M0 0 C0.33 0 0.66 0 1 0 C1.05398987 2.27057377 1.09278742 4.54151288 1.125 6.8125 C1.14820313 8.07707031 1.17140625 9.34164062 1.1953125 10.64453125 C1 14 1 14 -1 17 C-1.66 17 -2.32 17 -3 17 C-2.690625 16.05125 -2.38125 15.1025 -2.0625 14.125 C-0.72071729 9.49061575 -0.36657993 4.79447959 0 0 Z " fill="#FDBAE4" transform="translate(498,536)"/>
<path d="M0 0 C3.33333333 3.33333333 6.66666667 6.66666667 10 10 C6.85262818 9.30058404 3.97411124 8.23921302 1 7 C0.67 4.69 0.34 2.38 0 0 Z " fill="#EB1881" transform="translate(984,561)"/>
<path d="M0 0 C5.72398793 0.74660712 11.34853777 1.82877141 17 3 C17 3.33 17 3.66 17 4 C11.25883676 4.23433319 6.4132466 4.02996747 1 2 C0.67 1.34 0.34 0.68 0 0 Z " fill="#E8348E" transform="translate(855,560)"/>
<path d="M0 0 C0.33 0 0.66 0 1 0 C1 2.64 1 5.28 1 8 C1.66 8 2.32 8 3 8 C3 9.65 3 11.3 3 13 C2.01 13.33 1.02 13.66 0 14 C0 9.38 0 4.76 0 0 Z " fill="#F20D87" transform="translate(690,530)"/>
<path d="M0 0 C1.485 0.99 1.485 0.99 3 2 C3.2208564 4.95064148 3.28060989 7.68368231 3.1875 10.625 C3.17396484 11.42679688 3.16042969 12.22859375 3.14648438 13.0546875 C3.11109051 15.03674378 3.05728234 17.01845551 3 19 C2.67 19 2.34 19 2 19 C1.93941406 18.13117187 1.87882813 17.26234375 1.81640625 16.3671875 C1.73261719 15.21476563 1.64882813 14.06234375 1.5625 12.875 C1.48128906 11.73804688 1.40007813 10.60109375 1.31640625 9.4296875 C1.02269035 6.2459522 0.56875687 3.14489093 0 0 Z " fill="#E6107B" transform="translate(768,527)"/>
<path d="M0 0 C0.66 0 1.32 0 2 0 C2 2.97 2 5.94 2 9 C-0.31 7.35 -2.62 5.7 -5 4 C-4.34 3.67 -3.68 3.34 -3 3 C-2.34 3.33 -1.68 3.66 -1 4 C-0.67 2.68 -0.34 1.36 0 0 Z " fill="#D8237D" transform="translate(889,504)"/>
<path d="M0 0 C0 3 0 3 -1.6875 5.6875 C-4 8 -4 8 -6.75 8.3125 C-7.86375 8.1578125 -7.86375 8.1578125 -9 8 C-6.17493137 5.0702992 -3.21203935 2.49825283 0 0 Z " fill="#E82283" transform="translate(616,561)"/>
<path d="M0 0 C3.34373475 0.55728913 6.03312999 1.35173889 9 3 C9.33 2.34 9.66 1.68 10 1 C10 2.98 10 4.96 10 7 C6.39486597 4.93992341 3.19668988 2.6486859 0 0 Z " fill="#E82889" transform="translate(1029,504)"/>
<path d="M0 0 C3.26008643 3.16952847 6.22237877 6.39937989 9 10 C4.32307692 8.52307692 4.32307692 8.52307692 2.6875 5.875 C2.460625 5.25625 2.23375 4.6375 2 4 C1.34 4 0.68 4 0 4 C0 2.68 0 1.36 0 0 Z " fill="#E92587" transform="translate(836,561)"/>
<path d="M0 0 C-1.5830577 4.2742558 -4.50568404 6.26531794 -8 9 C-8.66 8.67 -9.32 8.34 -10 8 C-8.71451591 6.66070495 -7.42141845 5.32871357 -6.125 4 C-5.04605469 2.88625 -5.04605469 2.88625 -3.9453125 1.75 C-2 0 -2 0 0 0 Z " fill="#FEDCF8" transform="translate(996,507)"/>
<path d="M0 0 C0 3.3 0 6.6 0 10 C-0.66 10 -1.32 10 -2 10 C-2 8.02 -2 6.04 -2 4 C-2.66 3.67 -3.32 3.34 -4 3 C-1.125 0 -1.125 0 0 0 Z " fill="#D4217B" transform="translate(891,566)"/>
<path d="M0 0 C0.33 0.99 0.66 1.98 1 3 C-0.375 4.5 -0.375 4.5 -2 6 C-2.66 6 -3.32 6 -4 6 C-4.66 7.32 -5.32 8.64 -6 10 C-6.33 9.34 -6.66 8.68 -7 8 C-4.69 5.36 -2.38 2.72 0 0 Z " fill="#E81D82" transform="translate(1001,519)"/>
<path d="M0 0 C-0.66 0.66 -1.32 1.32 -2 2 C-5.0390625 1.9765625 -5.0390625 1.9765625 -8.625 1.625 C-9.81351562 1.51414062 -11.00203125 1.40328125 -12.2265625 1.2890625 C-13.14179688 1.19367187 -14.05703125 1.09828125 -15 1 C-15 0.67 -15 0.34 -15 0 C-13.25093341 -0.19601608 -11.50068154 -0.38147403 -9.75 -0.5625 C-8.77546875 -0.66691406 -7.8009375 -0.77132812 -6.796875 -0.87890625 C-4.2368648 -0.98974468 -2.41851841 -0.77738092 0 0 Z " fill="#E6288C" transform="translate(484,577)"/>
<path d="M0 0 C0 3 0 3 -1 5 C-4.81995829 6.61287128 -7.05432816 7.20681069 -11 6 C-10.28972656 5.65066406 -9.57945312 5.30132813 -8.84765625 4.94140625 C-7.92855469 4.48636719 -7.00945313 4.03132812 -6.0625 3.5625 C-4.68771484 2.88380859 -4.68771484 2.88380859 -3.28515625 2.19140625 C-1.09471096 1.19474606 -1.09471096 1.19474606 0 0 Z " fill="#E62584" transform="translate(756,568)"/>
<path d="M0 0 C0.66 0 1.32 0 2 0 C2.042721 1.66611905 2.04063832 3.33382885 2 5 C1.67 5.33 1.34 5.66 1 6 C0.76924918 7.34747084 0.58846937 8.70377565 0.4375 10.0625 C0.293125 11.361875 0.14875 12.66125 0 14 C-0.33 14 -0.66 14 -1 14 C-1.027193 12.41676312 -1.04648306 10.83338938 -1.0625 9.25 C-1.07410156 8.36828125 -1.08570313 7.4865625 -1.09765625 6.578125 C-1.00826198 4.2181162 -0.66912821 2.25501476 0 0 Z " fill="#E12182" transform="translate(709,530)"/>
<path d="M0 0 C1.44096586 0.42594588 2.87768712 0.86626633 4.3125 1.3125 C5.11300781 1.55613281 5.91351562 1.79976563 6.73828125 2.05078125 C9.09964573 3.04182023 10.33879993 4.08074943 12 6 C7.53866273 4.86279638 3.79558613 3.64540851 0 1 C0 0.67 0 0.34 0 0 Z " fill="#FFD6F4" transform="translate(1022,502)"/>
<path d="M0 0 C0.99 0.33 1.98 0.66 3 1 C1.38405168 3.04119788 -0.2856382 5.04072937 -2 7 C-2.66 7 -3.32 7 -4 7 C-4 6.34 -4 5.68 -4 5 C-3.34 5 -2.68 5 -2 5 C-1.7834375 4.0409375 -1.7834375 4.0409375 -1.5625 3.0625 C-1 1 -1 1 0 0 Z " fill="#E91C82" transform="translate(749,552)"/>
<path d="M0 0 C0.33 0 0.66 0 1 0 C0.53199289 4.05606165 0.12046792 7.46588679 -2 11 C-2.66 11 -3.32 11 -4 11 C-2.7874262 7.27566618 -1.49140021 3.62197194 0 0 Z " fill="#FECEF0" transform="translate(619,538)"/>
<path d="M0 0 C2.3125 -0.25 2.3125 -0.25 5 0 C6.8125 2 6.8125 2 8 4 C4 4 4 4 1.75 2 C1.1725 1.34 0.595 0.68 0 0 Z " fill="#ED157E" transform="translate(957,506)"/>
<path d="M0 0 C9.41002278 -0.3690205 9.41002278 -0.3690205 14 2 C14 2.33 14 2.66 14 3 C8.93437617 3.25328119 4.84241633 2.33583899 0 1 C0 0.67 0 0.34 0 0 Z " fill="#FAB8E1" transform="translate(938,502)"/>
<path d="M0 0 C4.29 0 8.58 0 13 0 C11.515 1.485 11.515 1.485 10 3 C7.51953125 2.85546875 7.51953125 2.85546875 4.8125 2.1875 C3.91144531 1.97480469 3.01039063 1.76210938 2.08203125 1.54296875 C1.39496094 1.36378906 0.70789063 1.18460938 0 1 C0 0.67 0 0.34 0 0 Z " fill="#EC087D" transform="translate(696,577)"/>
<path d="M0 0 C0.33 0 0.66 0 1 0 C1.04254356 1.99954746 1.04080783 4.00041636 1 6 C0.67 6.33 0.34 6.66 0 7 C-0.36760731 9.32817964 -0.70241581 11.6618385 -1 14 C-1.33 14 -1.66 14 -2 14 C-2.3690205 4.58997722 -2.3690205 4.58997722 0 0 Z " fill="#FECCF0" transform="translate(540,512)"/>
<path d="M0 0 C1.2065625 0.0309375 1.2065625 0.0309375 2.4375 0.0625 C0.81410195 1.77134005 -0.85569053 3.43696717 -2.5625 5.0625 C-3.2225 5.0625 -3.8825 5.0625 -4.5625 5.0625 C-3.43829114 0.08386076 -3.43829114 0.08386076 0 0 Z " fill="#EA2084" transform="translate(845.5625,506.9375)"/>
<path d="M0 0 C0.66 0 1.32 0 2 0 C1.375 2.375 1.375 2.375 0 5 C-3.125 6.3125 -3.125 6.3125 -6 7 C-5.04882866 5.8274869 -4.08882991 4.66212985 -3.125 3.5 C-2.59132813 2.8503125 -2.05765625 2.200625 -1.5078125 1.53125 C-0.76144531 0.77328125 -0.76144531 0.77328125 0 0 Z " fill="#FEDFF8" transform="translate(558,502)"/>
<path d="M0 0 C0.66 0.33 1.32 0.66 2 1 C0.68 1.33 -0.64 1.66 -2 2 C-2 2.99 -2 3.98 -2 5 C-4.31 4.67 -6.62 4.34 -9 4 C-6.06195683 2.47657021 -3.13439441 1.07229283 0 0 Z " fill="#E8278A" transform="translate(605,569)"/>
<path d="M0 0 C0.66 0.66 1.32 1.32 2 2 C0.73760288 2.86658615 -0.53527501 3.71792059 -1.8125 4.5625 C-2.87404297 5.27599609 -2.87404297 5.27599609 -3.95703125 6.00390625 C-6 7 -6 7 -9 6 C-6.03 4.02 -3.06 2.04 0 0 Z " fill="#CC528D" transform="translate(604,556)"/>
<path d="M0 0 C0.33 0.99 0.66 1.98 1 3 C-0.21484375 4.82421875 -0.21484375 4.82421875 -1.9375 6.6875 C-2.50339844 7.31011719 -3.06929687 7.93273437 -3.65234375 8.57421875 C-4.09707031 9.04472656 -4.54179688 9.51523437 -5 10 C-5.33 9.34 -5.66 8.68 -6 8 C-4.02 5.36 -2.04 2.72 0 0 Z " fill="#D870A5" transform="translate(556,501)"/>
<path d="M0 0 C0.33 0.66 0.66 1.32 1 2 C0.22265625 3.7265625 0.22265625 3.7265625 -0.9375 5.625 C-1.618125 6.73875 -2.29875 7.8525 -3 9 C-3.33 9 -3.66 9 -4 9 C-4 7.35 -4 5.7 -4 4 C-3.34 4 -2.68 4 -2 4 C-1.34 2.68 -0.68 1.36 0 0 Z " fill="#E82284" transform="translate(889,546)"/>
</svg>
